<?xml version="1.0" encoding="utf-8"?>
<!-- Generator: Adobe Illustrator 19.0.0, SVG Export Plug-In . SVG Version: 6.00 Build 0)  -->
<svg version="1.1" xmlns="http://www.w3.org/2000/svg" xmlns:xlink="http://www.w3.org/1999/xlink" x="0px" y="0px"
	 viewBox="0 0 441 441" style="enable-background:new 0 0 441 441;" xml:space="preserve">
<style type="text/css">
	.st0{fill:#272822;}
	.st1{fill:#F92672;}
	.st2{fill:#A6E22E;}
</style>
<g id="Terminal">
	<rect id="Background" class="st0" width="441" height="441"/>
</g>
<g id="Text">
	<g id="Prompt">
		<path id="XMLID_2_" class="st1" d="M195.2,212.7l-72.4,72.4c-2.3,2.3-6.2,2.3-8.5,0l-0.9-0.9c-2.3-2.3-2.3-6.2,0-8.5l72.4-72.4
			c2.3-2.3,6.2-2.3,8.5,0l0.9,0.9C197.6,206.5,197.6,210.4,195.2,212.7z"/>
		<path id="XMLID_3_" class="st1" d="M185.9,213.6l-72.4-72.4c-2.3-2.3-2.3-6.2,0-8.5l0.9-0.9c2.3-2.3,6.2-2.3,8.5,0l72.4,72.4
			c2.3,2.3,2.3,6.2,0,8.5l-0.9,0.9C192,215.9,188.2,215.9,185.9,213.6z"/>
	</g>
	<g id="Cursor">
		<path id="XMLID_5_" class="st2" d="M305.3,293.4H203c-3.3,0-6-2.7-6-6v-1.2c0-3.3,2.7-6,6-6h102.4c3.3,0,6,2.7,6,6v1.2
			C311.3,290.7,308.6,293.4,305.3,293.4z"/>
	</g>
</g>
</svg>
